HIERARCHY
ROOT Hips
{
	OFFSET 0.000000 71.427986 0.000000
	CHANNELS 6 Xposition Yposition Zposition Xrotation Yrotation Zrotation
	JOINT Pelvis
	{
		OFFSET 0.000000 0.000000 0.000000
		CHANNELS 3 Xrotation Yrotation Zrotation
		JOINT LeftUpLeg
		{
			OFFSET 6.797100 -2.508499 -1.318700
			CHANNELS 3 Xrotation Yrotation Zrotation
			JOINT LeftLeg
			{
				OFFSET 0.069008 -29.241863 0.690200
				CHANNELS 3 Xrotation Yrotation Zrotation
				JOINT LeftFoot
				{
					OFFSET -0.069008 -29.568123 -0.266800
					CHANNELS 3 Xrotation Yrotation Zrotation
					JOINT LeftToeBase
					{
						OFFSET 3.145500 -8.631000 16.059900
						CHANNELS 3 Xrotation Yrotation Zrotation
						End Site
						{
							OFFSET 0.000000 18.501587 0.000000
						}
					}
				}
			}
			JOINT Left_ShortSleeve
			{
				OFFSET 0.265923 -10.480953 1.153800
				CHANNELS 3 Xrotation Yrotation Zrotation
				End Site
				{
					OFFSET 1.725763 19.823879 0.000000
				}
			}
		}
		JOINT RightUpLeg
		{
			OFFSET -6.797100 -2.508499 -1.318700
			CHANNELS 3 Xrotation Yrotation Zrotation
			JOINT RightLeg
			{
				OFFSET -0.082453 -29.241932 0.688000
				CHANNELS 3 Xrotation Yrotation Zrotation
				JOINT RightFoot
				{
					OFFSET 0.082453 -29.568058 -0.264600
					CHANNELS 3 Xrotation Yrotation Zrotation
					JOINT RightToeBase
					{
						OFFSET -3.115300 -8.682800 16.113400
						CHANNELS 3 Xrotation Yrotation Zrotation
						End Site
						{
							OFFSET 0.000000 18.567114 0.000000
						}
					}
				}
			}
			JOINT Right_ShortSleeve
			{
				OFFSET -0.265923 -10.480953 1.153800
				CHANNELS 3 Xrotation Yrotation Zrotation
				End Site
				{
					OFFSET -1.725766 19.823910 0.000000
				}
			}
		}
	}
	JOINT Spine
	{
		OFFSET 0.000000 13.368103 0.470500
		CHANNELS 3 Xrotation Yrotation Zrotation
		JOINT Spine1
		{
			OFFSET 0.147000 13.837402 0.538800
			CHANNELS 3 Xrotation Yrotation Zrotation
			JOINT Spine2
			{
				OFFSET 0.168000 16.242897 -1.435500
				CHANNELS 3 Xrotation Yrotation Zrotation
				JOINT Neck
				{
					OFFSET 0.217200 18.631500 -1.679100
					CHANNELS 3 Xrotation Yrotation Zrotation
					JOINT Head
					{
						OFFSET 0.000000 6.599396 1.385900
						CHANNELS 3 Xrotation Yrotation Zrotation
						JOINT Hat
						{
							OFFSET -0.532200 27.220596 -10.096100
							CHANNELS 3 Xrotation Yrotation Zrotation
							End Site
							{
								OFFSET 0.000000 22.029861 0.000000
							}
						}
						JOINT HairD
						{
							OFFSET -10.777400 17.437393 -1.325900
							CHANNELS 3 Xrotation Yrotation Zrotation
							JOINT HairD1
							{
								OFFSET -3.290299 -11.051193 1.062200
								CHANNELS 3 Xrotation Yrotation Zrotation
								End Site
								{
									OFFSET 0.000000 11.579437 0.000000
								}
							}
						}
						JOINT HairB
						{
							OFFSET -10.777400 17.437393 1.467900
							CHANNELS 3 Xrotation Yrotation Zrotation
							JOINT HairB1
							{
								OFFSET -1.561200 -12.956299 3.590200
								CHANNELS 3 Xrotation Yrotation Zrotation
								End Site
								{
									OFFSET 0.000000 13.534866 0.000000
								}
							}
						}
						JOINT HairA
						{
							OFFSET 9.713100 17.437393 1.467900
							CHANNELS 3 Xrotation Yrotation Zrotation
							JOINT HairA1
							{
								OFFSET 1.561200 -12.956299 3.590200
								CHANNELS 3 Xrotation Yrotation Zrotation
								End Site
								{
									OFFSET 0.000000 13.534866 0.000000
								}
							}
						}
						JOINT HairC
						{
							OFFSET 9.713100 17.437393 -1.325900
							CHANNELS 3 Xrotation Yrotation Zrotation
							JOINT HairC1
							{
								OFFSET 3.290300 -11.051193 1.062200
								CHANNELS 3 Xrotation Yrotation Zrotation
								End Site
								{
									OFFSET 0.000000 11.579437 0.000000
								}
							}
						}
					}
				}
				JOINT LeftShoulder
				{
					OFFSET 5.101800 15.108002 -2.763700
					CHANNELS 3 Xrotation Yrotation Zrotation
					JOINT LeftArm
					{
						OFFSET 9.825497 2.506317 -1.597400
						CHANNELS 3 Xrotation Yrotation Zrotation
						JOINT LeftForeArm
						{
							OFFSET 21.966244 0.000000 0.000000
							CHANNELS 3 Xrotation Yrotation Zrotation
							JOINT LeftHand
							{
								OFFSET 33.879036 0.000000 0.000000
								CHANNELS 3 Xrotation Yrotation Zrotation
								JOINT LeftHandThumb1
								{
									OFFSET 6.715286 -2.359680 3.363841
									CHANNELS 3 Xrotation Yrotation Zrotation
									JOINT LeftHandThumb2
									{
										OFFSET 2.507072 -1.447464 1.447461
										CHANNELS 3 Xrotation Yrotation Zrotation
										JOINT LeftHandThumb3
										{
											OFFSET 2.898338 -1.673355 1.673357
											CHANNELS 3 Xrotation Yrotation Zrotation
											End Site
											{
												OFFSET -0.295959 3.727692 -0.131651
											}
										}
									}
								}
								JOINT LeftHandIndex1
								{
									OFFSET 14.190811 -0.254547 3.840278
									CHANNELS 3 Xrotation Yrotation Zrotation
									JOINT LeftHandIndex2
									{
										OFFSET 3.551727 0.000000 -0.000000
										CHANNELS 3 Xrotation Yrotation Zrotation
										JOINT LeftHandIndex3
										{
											OFFSET 2.894196 0.000000 0.000000
											CHANNELS 3 Xrotation Yrotation Zrotation
											End Site
											{
												OFFSET -1.000603 2.690872 0.366626
											}
										}
									}
								}
								JOINT LeftHandMiddle1
								{
									OFFSET 13.776489 0.000000 0.000000
									CHANNELS 3 Xrotation Yrotation Zrotation
									JOINT LeftHandMiddle2
									{
										OFFSET 3.438232 0.000000 0.000000
										CHANNELS 3 Xrotation Yrotation Zrotation
										JOINT LeftHandMiddle3
										{
											OFFSET 3.691551 0.000000 0.000000
											CHANNELS 3 Xrotation Yrotation Zrotation
											End Site
											{
												OFFSET -1.082298 3.499527 0.457670
											}
										}
									}
								}
								JOINT LeftHandRing1
								{
									OFFSET 13.966164 -0.268127 -3.067488
									CHANNELS 3 Xrotation Yrotation Zrotation
									JOINT LeftHandRing2
									{
										OFFSET 3.162567 0.000000 0.000000
										CHANNELS 3 Xrotation Yrotation Zrotation
										JOINT LeftHandRing3
										{
											OFFSET 3.324348 0.000000 0.000000
											CHANNELS 3 Xrotation Yrotation Zrotation
											End Site
											{
												OFFSET -0.861900 3.184998 0.405154
											}
										}
									}
								}
								JOINT LeftHandPinky1
								{
									OFFSET 13.131393 -0.168503 -5.746925
									CHANNELS 3 Xrotation Yrotation Zrotation
									JOINT LeftHandPinky2
									{
										OFFSET 2.849182 0.000000 0.000000
										CHANNELS 3 Xrotation Yrotation Zrotation
										JOINT LeftHandPinky3
										{
											OFFSET 2.805038 0.000000 0.000000
											CHANNELS 3 Xrotation Yrotation Zrotation
											End Site
											{
												OFFSET -0.882500 2.642609 0.325652
											}
										}
									}
								}
							}
							JOINT Left_Sleeve
							{
								OFFSET 6.592125 -0.646545 0.805568
								CHANNELS 3 Xrotation Yrotation Zrotation
								End Site
								{
									OFFSET -0.000179 20.275787 -0.000000
								}
							}
						}
					}
				}
				JOINT RightShoulder
				{
					OFFSET -5.731700 15.108002 -2.763700
					CHANNELS 3 Xrotation Yrotation Zrotation
					JOINT RightArm
					{
						OFFSET -9.825497 2.506317 -1.597400
						CHANNELS 3 Xrotation Yrotation Zrotation
						JOINT RightForeArm
						{
							OFFSET -21.966242 0.000000 0.000000
							CHANNELS 3 Xrotation Yrotation Zrotation
							JOINT RightHand
							{
								OFFSET -33.879032 0.000000 0.000000
								CHANNELS 3 Xrotation Yrotation Zrotation
								JOINT RightHandThumb1
								{
									OFFSET -6.715286 -2.359680 3.363841
									CHANNELS 3 Xrotation Yrotation Zrotation
									JOINT RightHandThumb2
									{
										OFFSET -2.507072 -1.447464 1.447461
										CHANNELS 3 Xrotation Yrotation Zrotation
										JOINT RightHandThumb3
										{
											OFFSET -2.898338 -1.673355 1.673357
											CHANNELS 3 Xrotation Yrotation Zrotation
											End Site
											{
												OFFSET 0.295959 3.727692 -0.131651
											}
										}
									}
								}
								JOINT RightHandIndex1
								{
									OFFSET -14.190811 -0.254547 3.840278
									CHANNELS 3 Xrotation Yrotation Zrotation
									JOINT RightHandIndex2
									{
										OFFSET -3.551727 0.000000 -0.000000
										CHANNELS 3 Xrotation Yrotation Zrotation
										JOINT RightHandIndex3
										{
											OFFSET -2.894196 0.000000 0.000000
											CHANNELS 3 Xrotation Yrotation Zrotation
											End Site
											{
												OFFSET 1.000603 2.690872 0.366626
											}
										}
									}
								}
								JOINT RightHandMiddle1
								{
									OFFSET -13.776489 0.000000 0.000000
									CHANNELS 3 Xrotation Yrotation Zrotation
									JOINT RightHandMiddle2
									{
										OFFSET -3.438232 0.000000 0.000000
										CHANNELS 3 Xrotation Yrotation Zrotation
										JOINT RightHandMiddle3
										{
											OFFSET -3.691551 0.000000 0.000000
											CHANNELS 3 Xrotation Yrotation Zrotation
											End Site
											{
												OFFSET 1.082298 3.499527 0.457670
											}
										}
									}
								}
								JOINT RightHandRing1
								{
									OFFSET -13.966164 -0.268127 -3.067488
									CHANNELS 3 Xrotation Yrotation Zrotation
									JOINT RightHandRing2
									{
										OFFSET -3.162567 0.000000 0.000000
										CHANNELS 3 Xrotation Yrotation Zrotation
										JOINT RightHandRing3
										{
											OFFSET -3.324348 0.000000 0.000000
											CHANNELS 3 Xrotation Yrotation Zrotation
											End Site
											{
												OFFSET 0.861900 3.184998 0.405154
											}
										}
									}
								}
								JOINT RightHandPinky1
								{
									OFFSET -13.131393 -0.168503 -5.746925
									CHANNELS 3 Xrotation Yrotation Zrotation
									JOINT RightHandPinky2
									{
										OFFSET -2.849182 0.000000 0.000000
										CHANNELS 3 Xrotation Yrotation Zrotation
										JOINT RightHandPinky3
										{
											OFFSET -2.805038 0.000000 0.000000
											CHANNELS 3 Xrotation Yrotation Zrotation
											End Site
											{
												OFFSET 0.882500 2.642609 0.325652
											}
										}
									}
								}
							}
							JOINT Right_Sleeve
							{
								OFFSET -6.592125 -0.646545 0.805568
								CHANNELS 3 Xrotation Yrotation Zrotation
								End Site
								{
									OFFSET 0.000179 20.275787 -0.000000
								}
							}
						}
					}
				}
				JOINT Bind_Right_JacketString
				{
					OFFSET -3.534800 11.969597 7.200700
					CHANNELS 3 Xrotation Yrotation Zrotation
					JOINT Bind_Right_JacketString1
					{
						OFFSET -0.319900 -6.102600 2.794100
						CHANNELS 3 Xrotation Yrotation Zrotation
						End Site
						{
							OFFSET 0.000000 6.719452 0.000000
						}
					}
				}
				JOINT Bind_Left_JacketString
				{
					OFFSET 2.904800 11.969597 7.200700
					CHANNELS 3 Xrotation Yrotation Zrotation
					JOINT Bind_Left_JacketString1
					{
						OFFSET 0.364800 -5.904503 3.186800
						CHANNELS 3 Xrotation Yrotation Zrotation
						End Site
						{
							OFFSET 0.000000 6.719513 0.000000
						}
					}
				}
				JOINT HairE
				{
					OFFSET 5.915200 17.612701 -11.592200
					CHANNELS 3 Xrotation Yrotation Zrotation
					JOINT HairE1
					{
						OFFSET 0.289200 -7.171898 -1.284500
						CHANNELS 3 Xrotation Yrotation Zrotation
						End Site
						{
							OFFSET 0.000000 7.291756 0.000000
						}
					}
				}
				JOINT HairF
				{
					OFFSET -0.864800 17.612701 -11.592200
					CHANNELS 3 Xrotation Yrotation Zrotation
					JOINT HairF1
					{
						OFFSET 0.000000 -14.087097 -2.127501
						CHANNELS 3 Xrotation Yrotation Zrotation
						End Site
						{
							OFFSET 0.000000 14.246841 0.000000
						}
					}
				}
				JOINT HairG
				{
					OFFSET -8.087700 17.612701 -11.592200
					CHANNELS 3 Xrotation Yrotation Zrotation
					JOINT HairG1
					{
						OFFSET -0.293600 -6.081398 -0.910100
						CHANNELS 3 Xrotation Yrotation Zrotation
						End Site
						{
							OFFSET 0.000000 6.156120 0.000000
						}
					}
				}
			}
		}
	}
	JOINT Pouch
	{
		OFFSET 0.000000 4.394501 10.847300
		CHANNELS 3 Xrotation Yrotation Zrotation
		End Site
		{
			OFFSET 0.000000 21.880577 0.000000
		}
	}
	JOINT Bag
	{
		OFFSET -13.229000 4.813004 -0.593300
		CHANNELS 3 Xrotation Yrotation Zrotation
		End Site
		{
			OFFSET 0.000000 21.880577 0.000000
		}
	}
	JOINT OccupyGuyFacialAnim_Joint
	{
		OFFSET 1.000000 -70.206398 -1.655000
		CHANNELS 3 Xrotation Yrotation Zrotation
		End Site
		{
			OFFSET 0.000000 21.880577 0.000000
		}
	}
}
MOTION
Frames: 4
Frame Time: 0.033333
-0.019274 62.735077 0.823944 -14.105745 4.571294 -0.315863 0.000000 0.000000 0.000000 -16.838455 -1.368396 13.871976 58.871593 -0.483484 0.413714 -27.690222 -1.415375 -11.307001 0.000000 0.000001 -0.000000 0.000000 0.000000 -0.000000 -13.663330 -10.554407 -14.973802 58.593625 0.223843 -0.378965 -30.029548 -3.892737 10.014562 -0.000000 0.000000 -0.000000 0.000001 0.000000 -0.000002 20.016563 -0.055609 0.815789 6.967291 -0.337537 0.679491 6.967511 -0.336989 0.677438 -12.249322 -1.248215 -0.496008 -16.116835 -1.754215 -0.002239 -0.000002 -0.000000 -0.000000 -0.000002 -0.000000 -0.000000 -0.000002 -0.000000 0.000000 -0.000002 -0.000000 -0.000000 -0.000001 -0.000000 -0.000000 -0.000002 -0.000000 -0.000000 -0.000001 -0.000000 -0.000000 -0.000002 -0.000000 -0.000000 -0.000002 -0.000000 -0.000000 3.082230 -9.945122 -6.811325 -13.959272 -7.908221 -60.295271 69.634257 -63.509114 71.597075 17.167892 -2.491266 -13.648313 2.689273 3.159883 6.593328 -0.080937 21.143655 -2.540019 0.000005 0.000001 -0.000001 -10.621175 2.937289 -19.267716 1.669115 6.188714 -21.755665 0.000003 -0.000003 -0.000002 -13.823035 9.936959 -22.469198 6.048986 4.246420 -31.221987 0.000002 0.000005 -0.000000 -10.744692 8.325248 -36.571077 3.038196 0.221637 -39.078678 -0.000000 -0.000000 0.000001 -11.942415 9.095564 -39.265446 4.640652 -6.164086 -45.289294 -0.000000 0.000003 0.000001 -0.000003 0.000000 -0.000001 8.709553 -2.418518 18.823144 -21.494482 12.934336 56.855485 76.344180 65.516998 -70.724628 6.442933 -2.140739 3.544956 2.688998 -3.159258 -6.593410 -0.079176 -21.145987 2.540880 -0.000003 -0.000001 0.000001 -10.621228 -2.937120 19.269080 1.668970 -6.188741 21.755291 -0.000002 0.000001 0.000002 -13.688471 -10.244153 24.164193 6.044766 -4.250324 31.223370 0.000001 -0.000003 0.000002 -10.744617 -8.325822 36.569994 3.037660 -0.220810 39.079320 -0.000000 -0.000001 -0.000001 -11.872867 -9.179274 39.251967 4.640932 6.162598 45.288829 -0.000001 0.000000 -0.000001 -0.000001 -0.000001 0.000000 0.000003 -0.000000 -0.000000 0.000003 -0.000000 -0.000000 0.000003 -0.000000 -0.000000 0.000003 -0.000000 -0.000000 0.000003 -0.000000 -0.000000 0.000003 -0.000000 -0.000000 0.000003 -0.000000 -0.000000 0.000003 -0.000000 -0.000000 0.000003 -0.000000 -0.000000 0.000003 -0.000000 -0.000000 0.000000 0.000000 0.000000 0.000000 0.000000 0.000000 0.000000 0.000000 0.000000 
-0.144405 62.637604 0.783159 -14.000173 5.627348 -1.035956 -0.000000 0.000000 -0.000000 -17.379725 -2.871978 14.389737 59.493024 -0.477895 0.418919 -27.802439 -1.365590 -11.539966 -0.000000 -0.000000 0.000000 -0.000002 0.000000 0.000000 -13.539723 -11.628470 -14.218636 58.620918 0.240167 -0.377402 -30.160305 -4.170779 9.829023 -0.000000 -0.000000 -0.000000 -0.000000 0.000001 -0.000000 20.034314 -0.060295 1.122156 6.992027 -0.445019 1.027954 6.991758 -0.445641 1.025757 -12.149640 -1.470388 1.133017 -16.003073 -1.147150 -0.936339 -0.000001 0.000000 -0.000000 -0.000001 0.000000 -0.000000 -0.000001 0.000000 -0.000000 -0.000001 0.000000 -0.000000 -0.000000 0.000000 -0.000000 -0.000001 0.000000 -0.000000 -0.000000 0.000000 -0.000000 -0.000001 0.000000 -0.000000 -0.000001 0.000000 -0.000000 2.952178 -10.580496 -6.444222 -14.128780 -8.619309 -57.675278 67.558193 -63.897492 64.750125 15.602160 -5.704501 -6.945708 2.256175 4.019138 5.769363 1.918867 20.942847 -2.631953 0.000000 0.000001 -0.000001 -9.975289 3.973229 -18.322476 1.717893 6.654215 -24.229497 -0.000001 -0.000004 -0.000004 -13.596881 10.412251 -22.563165 5.537582 4.730747 -32.267521 0.000001 0.000005 -0.000000 -10.492676 9.032385 -37.096783 2.906451 0.744496 -36.913580 -0.000001 -0.000000 0.000001 -11.344445 10.080951 -38.452900 4.322791 -5.803056 -42.332375 0.000000 -0.000004 0.000004 0.000003 0.000000 0.000000 8.339682 -1.525340 20.477868 -21.680815 12.236795 52.944812 71.971786 66.829836 -65.608748 5.088335 -1.589778 2.423472 2.845835 -3.767911 -6.776033 1.519711 -19.377692 3.191236 0.000002 -0.000002 -0.000001 -10.088107 -3.759529 18.293685 1.583818 -6.370269 22.266000 -0.000001 0.000001 -0.000001 -12.869996 -9.679580 24.467995 5.496913 -4.875885 32.977253 0.000000 0.000001 -0.000001 -10.733871 -8.354271 37.015281 3.002769 -1.324854 39.729199 0.000001 -0.000003 -0.000002 -11.810057 -9.409439 40.543924 4.424001 5.410195 44.074494 0.000001 0.000001 -0.000001 0.000000 0.000000 0.000001 0.000001 -0.000000 -0.000000 0.000001 -0.000000 -0.000000 0.000001 -0.000000 -0.000000 0.000001 -0.000000 -0.000000 0.000001 -0.000000 -0.000000 0.000001 -0.000000 -0.000000 0.000001 -0.000000 -0.000000 0.000001 -0.000000 -0.000000 0.000001 -0.000000 -0.000000 0.000001 -0.000000 -0.000000 -0.000000 0.000000 -0.000000 -0.000000 0.000000 -0.000000 -0.000000 0.000000 -0.000000 
-0.226135 62.454460 0.707069 -13.751074 7.588146 -1.853799 0.000001 0.000000 -0.000000 -18.538506 -4.807784 14.961340 60.527490 -0.463077 0.427328 -27.955380 -1.989684 -11.747319 0.000000 0.000000 -0.000000 -0.000002 0.000000 -0.000002 -13.564152 -13.664155 -13.708383 58.791140 0.253634 -0.377029 -30.422636 -4.339299 9.707150 -0.000000 -0.000000 -0.000000 0.000001 -0.000000 -0.000001 20.041763 -0.148929 1.683224 6.990977 -0.802985 1.699621 6.990636 -0.803438 1.696256 -11.683438 -1.731954 3.048319 -15.971463 -0.299635 -2.662495 -0.000001 0.000000 0.000000 -0.000001 0.000000 0.000000 -0.000001 0.000000 0.000000 -0.000001 0.000000 -0.000000 0.000000 -0.000000 -0.000000 -0.000001 0.000000 -0.000000 0.000000 -0.000000 -0.000000 -0.000001 0.000000 0.000000 -0.000001 0.000000 0.000000 2.793166 -11.683590 -5.863102 -13.702332 -9.155286 -54.518553 62.681732 -64.375687 53.028861 12.459206 -8.979943 5.219716 1.810819 4.937095 4.924423 4.218444 20.742427 -2.745813 0.000001 -0.000001 0.000002 -9.322145 5.001835 -16.810388 1.793122 7.166038 -26.914219 0.000002 -0.000000 -0.000002 -13.406555 10.780841 -22.276464 4.955457 5.280959 -33.240704 -0.000000 0.000002 -0.000001 -10.209585 9.749879 -37.292648 2.686578 1.303014 -34.276867 -0.000001 -0.000002 -0.000000 -10.671609 11.160013 -37.059500 3.867302 -5.467777 -38.685700 0.000000 0.000000 -0.000001 0.000002 0.000001 0.000001 7.941574 -0.749792 22.532079 -22.502656 12.291203 47.932919 64.062489 67.593212 -56.316580 2.364267 -0.913169 0.752602 3.022495 -4.465242 -6.985253 3.278804 -17.293692 3.822261 0.000003 0.000003 0.000000 -9.508047 -4.721862 17.187809 1.489455 -6.580337 22.850589 -0.000001 0.000000 -0.000001 -11.939619 -9.024836 24.801105 4.909867 -5.637935 34.978116 0.000001 -0.000001 -0.000001 -10.723418 -8.384717 37.494457 2.993232 -2.589390 40.462577 0.000001 0.000000 -0.000002 -11.747334 -9.649836 41.934851 4.132147 4.559077 42.677071 -0.000001 0.000004 -0.000001 -0.000001 -0.000000 0.000001 0.000001 0.000000 -0.000000 0.000001 0.000000 0.000000 0.000001 0.000000 -0.000000 0.000001 0.000000 -0.000000 0.000001 0.000000 -0.000000 0.000001 0.000000 0.000000 0.000001 0.000000 -0.000000 0.000001 0.000000 -0.000000 0.000001 0.000000 -0.000000 0.000001 0.000000 0.000000 0.000001 0.000000 -0.000000 0.000001 0.000000 -0.000000 0.000001 0.000000 -0.000000 
-0.167058 62.167145 0.561275 -13.378151 9.781517 -2.360605 0.000000 -0.000001 -0.000000 -20.229277 -6.429207 15.134985 61.883597 -0.441434 0.437825 -28.154689 -3.129414 -11.765618 -0.000000 0.000000 -0.000000 -0.000001 0.000000 0.000001 -14.085914 -15.895932 -13.963809 59.382074 0.249327 -0.382758 -30.806445 -4.259956 9.792516 -0.000000 -0.000000 -0.000000 0.000001 -0.000001 -0.000000 20.015007 -0.242701 2.305148 6.922968 -1.198755 2.533346 6.922959 -1.197647 2.528263 -11.038188 -1.999395 5.322772 -15.893804 0.805293 -5.052201 -0.000000 -0.000000 0.000000 -0.000000 -0.000000 0.000000 -0.000000 -0.000000 0.000000 -0.000000 -0.000000 -0.000000 -0.000000 -0.000000 0.000000 -0.000000 -0.000000 -0.000000 -0.000000 -0.000000 0.000000 -0.000000 -0.000000 0.000000 -0.000000 -0.000000 0.000000 2.660304 -13.111410 -4.648809 -12.705850 -9.630050 -51.493541 57.373418 -63.888695 39.967552 9.981166 -9.690809 19.048407 1.359136 5.904710 4.070409 6.636990 20.530428 -2.889332 -0.000001 0.000001 -0.000001 -8.714423 6.057093 -15.078863 1.899790 7.696595 -29.685686 -0.000000 -0.000001 -0.000002 -13.235477 11.108904 -21.836574 4.355550 5.871041 -34.180387 0.000002 0.000004 -0.000000 -9.913667 10.471048 -37.357771 2.378416 1.859188 -31.444429 -0.000001 -0.000000 0.000001 -10.027475 12.294924 -35.410784 3.298368 -5.182624 -34.766722 0.000000 -0.000006 0.000000 0.000002 0.000002 0.000002 7.425275 -0.244329 23.970074 -23.912386 12.900202 43.276266 52.507615 66.947083 -43.153313 -1.180002 -0.002772 -1.737868 3.201518 -5.184778 -7.201227 5.019880 -15.084466 4.348782 0.000000 0.000000 0.000001 -8.944046 -5.736422 16.059180 1.395606 -6.799464 23.453345 -0.000003 -0.000002 0.000002 -10.987319 -8.340668 25.128121 4.351934 -6.472643 37.033774 0.000001 -0.000001 -0.000001 -10.713923 -8.415605 37.981859 3.017181 -3.893190 41.208051 -0.000001 -0.000002 0.000001 -11.688913 -9.886898 43.349985 3.782715 3.694819 41.227278 0.000001 0.000001 0.000002 0.000001 -0.000001 0.000001 -0.000001 0.000000 -0.000000 -0.000001 0.000000 -0.000000 -0.000001 0.000000 -0.000000 -0.000001 0.000000 -0.000000 -0.000001 0.000000 -0.000000 -0.000001 0.000000 -0.000000 -0.000001 0.000000 -0.000000 -0.000001 0.000000 -0.000000 -0.000001 0.000000 -0.000000 -0.000001 0.000000 -0.000000 0.000000 -0.000001 -0.000000 0.000000 -0.000001 -0.000000 0.000000 -0.000001 -0.000000 
